<svg width="19" height="25" viewBox="0 0 19 25" fill="none" xmlns="http://www.w3.org/2000/svg">
<path d="M11.8047 0.432617C11.9147 0.464386 12.0212 0.522433 12.1152 0.612305L18.6504 6.86426L18.7324 6.95605C18.7594 6.99137 18.7813 7.02876 18.8008 7.06641L19 7.25586V20.165L18.9893 20.3691C18.8934 21.3103 18.1454 22.0589 17.2041 22.1543L17 22.165H16V23C16 24.1046 15.1046 25 14 25H2C0.964349 25 0.113005 24.2128 0.0107422 23.2041L0 23V5C0 3.89543 0.895431 3 2 3H3V2.16797C3 1.0634 3.89543 0.166992 5 0.166992H11.5254L11.8047 0.432617ZM2 4C1.44771 4 1 4.44772 1 5V23C1 23.5523 1.44772 24 2 24H14C14.5523 24 15 23.5523 15 23V22.165H5L4.7959 22.1543C3.85462 22.0589 3.10657 21.3103 3.01074 20.3691L3 20.165V4H2ZM5 1.16797C4.44772 1.16797 4 1.61568 4 2.16797V20.165C4.00047 20.7169 4.44801 21.165 5 21.165H17C17.552 21.165 17.9995 20.7169 18 20.165V8.15527H11.5967C11.1828 8.15499 10.8469 7.81912 10.8467 7.40527V1.16797H5ZM11.8467 7.15527L17.5078 7.15625L11.8467 1.74121V7.15527Z" fill="#848485"/>
</svg>
