<svg width="24" height="24" viewBox="0 0 24 24" fill="none" xmlns="http://www.w3.org/2000/svg">
<path d="M12.12 11.1525C12.045 11.145 11.955 11.145 11.8725 11.1525C10.0875 11.0925 8.67004 9.63 8.67004 7.83C8.67004 5.9925 10.155 4.5 12 4.5C13.8375 4.5 15.33 5.9925 15.33 7.83C15.3225 9.63 13.905 11.0925 12.12 11.1525Z" stroke="#292D32" stroke-width="1.5" stroke-linecap="round" stroke-linejoin="round"/>
<path d="M8.37004 13.92C6.55504 15.135 6.55504 17.115 8.37004 18.3225C10.4325 19.7025 13.815 19.7025 15.8775 18.3225C17.6925 17.1075 17.6925 15.1275 15.8775 13.92C13.8225 12.5475 10.44 12.5475 8.37004 13.92Z" stroke="#292D32" stroke-width="1.5" stroke-linecap="round" stroke-linejoin="round"/>
<path d="M12 22C17.5228 22 22 17.5228 22 12C22 6.47715 17.5228 2 12 2C6.47715 2 2 6.47715 2 12C2 17.5228 6.47715 22 12 22Z" stroke="#292D32" stroke-width="1.5" stroke-linecap="round" stroke-linejoin="round"/>
</svg>
